<svg width="253" height="28" viewBox="0 0 253 28" fill="none" xmlns="http://www.w3.org/2000/svg">
<path d="M3 3.48302L23.8358 24.2951M3 24.2951L23.8358 3.48303M32.5185 3.23289C38.3817 3.23289 43.1346 7.90489 43.1346 13.6681C43.1346 19.4309 38.3817 24.1029 32.5185 24.1029" stroke="#E85F63" stroke-width="4.88937" stroke-linecap="round"/>
<path d="M78.8193 0.152518C79.709 0.152518 80.4207 0.419423 80.9545 0.953234C81.4883 1.48704 81.7552 2.19879 81.7552 3.08848V24.479C81.7552 25.3687 81.4883 26.0932 80.9545 26.6524C80.4207 27.1862 79.709 27.4531 78.8193 27.4531C77.9296 27.4531 77.2178 27.1862 76.684 26.6524C76.1756 26.1186 75.9214 25.3941 75.9214 24.479V15.9381H63.5294V24.479C63.5294 25.3687 63.2625 26.0932 62.7287 26.6524C62.1949 27.1862 61.4959 27.4531 60.6316 27.4531C59.7419 27.4531 59.0302 27.1862 58.4963 26.6524C57.9625 26.1186 57.6956 25.3941 57.6956 24.479V3.08848C57.6956 2.19879 57.9625 1.48704 58.4963 0.953234C59.0302 0.419423 59.7419 0.152518 60.6316 0.152518C61.5213 0.152518 62.2203 0.419423 62.7287 0.953234C63.2625 1.48704 63.5294 2.19879 63.5294 3.08848V11.21H75.9214V3.08848C75.9214 2.19879 76.1756 1.48704 76.684 0.953234C77.2178 0.419423 77.9296 0.152518 78.8193 0.152518Z" fill="white"/>
<path d="M89.3233 27.4531C88.4082 27.4531 87.6837 27.1862 87.1499 26.6524C86.6161 26.1186 86.3492 25.3941 86.3492 24.479V3.08848C86.3492 2.19879 86.6161 1.48704 87.1499 0.953234C87.6837 0.419423 88.4082 0.152518 89.3233 0.152518C90.2384 0.152518 90.9629 0.419423 91.4967 0.953234C92.0305 1.48704 92.2974 2.19879 92.2974 3.08848V24.479C92.2974 25.3941 92.0305 26.1186 91.4967 26.6524C90.9629 27.1862 90.2384 27.4531 89.3233 27.4531Z" fill="white"/>
<path d="M117.65 12.392C118.361 12.392 118.92 12.5954 119.327 13.0021C119.759 13.3834 119.975 13.9172 119.975 14.6035V22.0387C119.975 23.0555 119.886 23.8435 119.709 24.4028C119.556 24.962 119.276 25.4068 118.87 25.7373C118.463 26.0677 117.853 26.3474 117.039 26.5761C116.048 26.8812 114.904 27.1227 113.608 27.3006C112.337 27.4785 111.129 27.5675 109.986 27.5675C107.139 27.5675 104.673 27.021 102.588 25.9279C100.504 24.8095 98.9026 23.2208 97.7841 21.1618C96.6657 19.0774 96.1065 16.6117 96.1065 13.7647C96.1065 10.9685 96.653 8.54097 97.746 6.48199C98.8645 4.39758 100.453 2.79615 102.512 1.67769C104.571 0.55923 106.973 0 109.719 0C113.252 0 116.175 0.915104 118.488 2.74531C118.87 3.05035 119.137 3.35538 119.289 3.66041C119.442 3.96545 119.518 4.34674 119.518 4.8043C119.518 5.4652 119.327 6.03714 118.946 6.52011C118.59 6.97767 118.158 7.20644 117.65 7.20644C117.319 7.20644 117.014 7.1556 116.734 7.05392C116.48 6.95225 116.162 6.78702 115.781 6.55824C114.714 5.89734 113.735 5.42707 112.845 5.14746C111.956 4.86784 110.977 4.72804 109.909 4.72804C104.724 4.72804 102.131 7.74025 102.131 13.7647C102.131 16.8659 102.805 19.179 104.152 20.7042C105.499 22.2294 107.533 22.992 110.252 22.992C111.727 22.992 113.188 22.8013 114.637 22.42V16.51H111.129C110.392 16.51 109.82 16.3321 109.414 15.9762C109.007 15.6203 108.804 15.1119 108.804 14.451C108.804 13.7901 109.007 13.2817 109.414 12.9258C109.82 12.57 110.392 12.392 111.129 12.392H117.65Z" fill="white"/>
<path d="M145.38 0.152518C146.27 0.152518 146.982 0.419423 147.515 0.953234C148.049 1.48704 148.316 2.19879 148.316 3.08848V24.479C148.316 25.3687 148.049 26.0932 147.515 26.6524C146.982 27.1862 146.27 27.4531 145.38 27.4531C144.491 27.4531 143.779 27.1862 143.245 26.6524C142.737 26.1186 142.482 25.3941 142.482 24.479V15.9381H130.09V24.479C130.09 25.3687 129.823 26.0932 129.29 26.6524C128.756 27.1862 128.057 27.4531 127.193 27.4531C126.303 27.4531 125.591 27.1862 125.057 26.6524C124.524 26.1186 124.257 25.3941 124.257 24.479V3.08848C124.257 2.19879 124.524 1.48704 125.057 0.953234C125.591 0.419423 126.303 0.152518 127.193 0.152518C128.082 0.152518 128.781 0.419423 129.29 0.953234C129.823 1.48704 130.09 2.19879 130.09 3.08848V11.21H142.482V3.08848C142.482 2.19879 142.737 1.48704 143.245 0.953234C143.779 0.419423 144.491 0.152518 145.38 0.152518Z" fill="white"/>
<path d="M155.694 27.2243C154.804 27.2243 154.118 26.9828 153.635 26.4999C153.152 26.0169 152.91 25.3306 152.91 24.4409V3.08848C152.91 2.19879 153.177 1.48704 153.711 0.953234C154.245 0.419423 154.969 0.152518 155.884 0.152518C156.799 0.152518 157.524 0.419423 158.058 0.953234C158.591 1.48704 158.858 2.19879 158.858 3.08848V22.3819H168.619C170.475 22.3819 171.403 23.1953 171.403 24.8222C171.403 26.4236 170.475 27.2243 168.619 27.2243H155.694Z" fill="white"/>
<path d="M184.46 27.5675C181.791 27.5675 179.465 27.0083 177.482 25.8898C175.525 24.7459 174.012 23.1445 172.945 21.0855C171.877 19.0011 171.343 16.5608 171.343 13.7647C171.343 10.9685 171.877 8.54097 172.945 6.48199C174.012 4.39758 175.525 2.79615 177.482 1.67769C179.465 0.55923 181.791 0 184.46 0C187.129 0 189.442 0.55923 191.399 1.67769C193.382 2.79615 194.907 4.39758 195.975 6.48199C197.042 8.54097 197.576 10.9685 197.576 13.7647C197.576 16.5608 197.042 19.0011 195.975 21.0855C194.907 23.1445 193.382 24.7459 191.399 25.8898C189.442 27.0083 187.129 27.5675 184.46 27.5675ZM184.46 22.9539C186.697 22.9539 188.451 22.1658 189.722 20.5898C191.018 19.0138 191.666 16.7388 191.666 13.7647C191.666 10.7906 191.031 8.52826 189.76 6.97767C188.489 5.40165 186.722 4.61365 184.46 4.61365C182.197 4.61365 180.431 5.40165 179.16 6.97767C177.914 8.52826 177.292 10.7906 177.292 13.7647C177.292 16.7388 177.927 19.0138 179.198 20.5898C180.469 22.1658 182.223 22.9539 184.46 22.9539Z" fill="white"/>
<path d="M225.662 23.6021C225.865 24.0596 225.967 24.4663 225.967 24.8222C225.967 25.5339 225.674 26.144 225.09 26.6524C224.53 27.1354 223.882 27.3769 223.145 27.3769C222.662 27.3769 222.204 27.2498 221.772 26.9956C221.34 26.7159 221.01 26.3092 220.781 25.7754L218.76 21.2762H205.834L203.813 25.7754C203.585 26.3092 203.254 26.7159 202.822 26.9956C202.415 27.2498 201.958 27.3769 201.449 27.3769C200.712 27.3769 200.051 27.1354 199.467 26.6524C198.882 26.144 198.59 25.5339 198.59 24.8222C198.59 24.4663 198.691 24.0596 198.895 23.6021L209.19 1.98272C209.469 1.37266 209.889 0.915104 210.448 0.61007C211.007 0.279616 211.605 0.114389 212.24 0.114389C212.901 0.114389 213.511 0.279616 214.07 0.61007C214.629 0.940523 215.062 1.39807 215.367 1.98272L225.662 23.6021ZM216.739 16.7769L212.316 6.86328L207.855 16.7769H216.739Z" fill="white"/>
<path d="M231.266 27.2243C230.376 27.2243 229.69 26.9828 229.207 26.4999C228.724 26.0169 228.482 25.3306 228.482 24.4409V3.1266C228.482 2.23692 228.724 1.55059 229.207 1.06762C229.69 0.58465 230.376 0.343164 231.266 0.343164H238.93C241.853 0.343164 244.369 0.876974 246.479 1.9446C248.589 3.01222 250.203 4.5501 251.322 6.55824C252.44 8.56639 252.999 10.9685 252.999 13.7647C252.999 16.5608 252.44 18.9757 251.322 21.0093C250.229 23.0174 248.627 24.5553 246.517 25.6229C244.408 26.6905 241.878 27.2243 238.93 27.2243H231.266ZM238.51 22.42C244.23 22.42 247.089 19.5349 247.089 13.7647C247.089 8.01987 244.23 5.14746 238.51 5.14746H234.43V22.42H238.51Z" fill="white"/>
</svg>
